<mxfile host="Electron" modified="2024-04-17T12:11:11.764Z" agent="Mozilla/5.0 (Windows NT 10.0; Win64; x64) AppleWebKit/537.36 (KHTML, like Gecko) draw.io/24.0.4 Chrome/120.0.6099.109 Electron/28.1.0 Safari/537.36" etag="AHnr5lTi0Zy62ikx58N-" version="24.0.4" type="device">
  <diagram id="23iRSUPoRavnBvh4doch" name="Page-1">
    <mxGraphModel dx="1195" dy="697" grid="1" gridSize="10" guides="1" tooltips="1" connect="1" arrows="1" fold="1" page="1" pageScale="1" pageWidth="827" pageHeight="1169" math="0" shadow="0">
      <root>
        <mxCell id="0" />
        <mxCell id="1" parent="0" />
        <mxCell id="BE_7_yksDcNoPbh0e0uR-4" value="" style="edgeStyle=orthogonalEdgeStyle;rounded=0;orthogonalLoop=1;jettySize=auto;html=1;" edge="1" parent="1" source="BE_7_yksDcNoPbh0e0uR-1" target="BE_7_yksDcNoPbh0e0uR-3">
          <mxGeometry relative="1" as="geometry" />
        </mxCell>
        <mxCell id="BE_7_yksDcNoPbh0e0uR-1" value="&lt;h3&gt;Start&lt;/h3&gt;" style="rounded=1;whiteSpace=wrap;html=1;arcSize=50;fillColor=#f5f5f5;fontColor=#333333;strokeColor=#666666;" vertex="1" parent="1">
          <mxGeometry x="360" y="120" width="120" height="40" as="geometry" />
        </mxCell>
        <mxCell id="BE_7_yksDcNoPbh0e0uR-2" value="&lt;h1&gt;Insertion sort&lt;/h1&gt;" style="text;html=1;align=center;verticalAlign=middle;resizable=0;points=[];autosize=1;strokeColor=none;fillColor=none;" vertex="1" parent="1">
          <mxGeometry x="324" y="10" width="180" height="70" as="geometry" />
        </mxCell>
        <mxCell id="BE_7_yksDcNoPbh0e0uR-19" value="" style="edgeStyle=orthogonalEdgeStyle;rounded=0;orthogonalLoop=1;jettySize=auto;html=1;" edge="1" parent="1" source="BE_7_yksDcNoPbh0e0uR-3" target="BE_7_yksDcNoPbh0e0uR-17">
          <mxGeometry relative="1" as="geometry" />
        </mxCell>
        <mxCell id="BE_7_yksDcNoPbh0e0uR-3" value="i = 1; i &amp;lt; arr.length; ++i&amp;nbsp;" style="shape=hexagon;perimeter=hexagonPerimeter2;whiteSpace=wrap;html=1;fixedSize=1;fillColor=#f5f5f5;fontColor=#333333;strokeColor=#666666;" vertex="1" parent="1">
          <mxGeometry x="330" y="200" width="180" height="40" as="geometry" />
        </mxCell>
        <mxCell id="BE_7_yksDcNoPbh0e0uR-8" value="" style="edgeStyle=orthogonalEdgeStyle;rounded=0;orthogonalLoop=1;jettySize=auto;html=1;" edge="1" parent="1" source="BE_7_yksDcNoPbh0e0uR-5" target="BE_7_yksDcNoPbh0e0uR-7">
          <mxGeometry relative="1" as="geometry" />
        </mxCell>
        <mxCell id="BE_7_yksDcNoPbh0e0uR-5" value="init tmp = arr[ i ]" style="whiteSpace=wrap;html=1;fillColor=#f5f5f5;strokeColor=#666666;fontColor=#333333;" vertex="1" parent="1">
          <mxGeometry x="360" y="360" width="120" height="40" as="geometry" />
        </mxCell>
        <mxCell id="BE_7_yksDcNoPbh0e0uR-10" value="" style="edgeStyle=orthogonalEdgeStyle;rounded=0;orthogonalLoop=1;jettySize=auto;html=1;" edge="1" parent="1" source="BE_7_yksDcNoPbh0e0uR-7" target="BE_7_yksDcNoPbh0e0uR-9">
          <mxGeometry relative="1" as="geometry" />
        </mxCell>
        <mxCell id="BE_7_yksDcNoPbh0e0uR-7" value="init j = i" style="whiteSpace=wrap;html=1;fillColor=#f5f5f5;strokeColor=#666666;fontColor=#333333;" vertex="1" parent="1">
          <mxGeometry x="360" y="440" width="120" height="40" as="geometry" />
        </mxCell>
        <mxCell id="BE_7_yksDcNoPbh0e0uR-12" value="" style="edgeStyle=orthogonalEdgeStyle;rounded=0;orthogonalLoop=1;jettySize=auto;html=1;" edge="1" parent="1" source="BE_7_yksDcNoPbh0e0uR-9" target="BE_7_yksDcNoPbh0e0uR-11">
          <mxGeometry relative="1" as="geometry" />
        </mxCell>
        <mxCell id="BE_7_yksDcNoPbh0e0uR-9" value="j &amp;gt; 0 and&amp;nbsp;&lt;div&gt;arr[ j - 1 ] &amp;gt; tmp&lt;/div&gt;" style="shape=trapezoid;perimeter=trapezoidPerimeter;whiteSpace=wrap;html=1;fixedSize=1;fillColor=#f5f5f5;strokeColor=#666666;fontColor=#333333;" vertex="1" parent="1">
          <mxGeometry x="360" y="520" width="120" height="40" as="geometry" />
        </mxCell>
        <mxCell id="BE_7_yksDcNoPbh0e0uR-14" value="" style="edgeStyle=orthogonalEdgeStyle;rounded=0;orthogonalLoop=1;jettySize=auto;html=1;" edge="1" parent="1" source="BE_7_yksDcNoPbh0e0uR-11" target="BE_7_yksDcNoPbh0e0uR-13">
          <mxGeometry relative="1" as="geometry" />
        </mxCell>
        <mxCell id="BE_7_yksDcNoPbh0e0uR-11" value="arr[ j ] = arr[ j - 1 ]" style="whiteSpace=wrap;html=1;fillColor=#f5f5f5;strokeColor=#666666;fontColor=#333333;" vertex="1" parent="1">
          <mxGeometry x="360" y="600" width="120" height="40" as="geometry" />
        </mxCell>
        <mxCell id="BE_7_yksDcNoPbh0e0uR-16" value="" style="edgeStyle=orthogonalEdgeStyle;rounded=0;orthogonalLoop=1;jettySize=auto;html=1;" edge="1" parent="1" source="BE_7_yksDcNoPbh0e0uR-13" target="BE_7_yksDcNoPbh0e0uR-15">
          <mxGeometry relative="1" as="geometry" />
        </mxCell>
        <mxCell id="BE_7_yksDcNoPbh0e0uR-13" value="decrement j" style="whiteSpace=wrap;html=1;fillColor=#f5f5f5;strokeColor=#666666;fontColor=#333333;" vertex="1" parent="1">
          <mxGeometry x="360" y="680" width="120" height="40" as="geometry" />
        </mxCell>
        <mxCell id="BE_7_yksDcNoPbh0e0uR-23" value="" style="edgeStyle=orthogonalEdgeStyle;rounded=0;orthogonalLoop=1;jettySize=auto;html=1;" edge="1" parent="1" source="BE_7_yksDcNoPbh0e0uR-15" target="BE_7_yksDcNoPbh0e0uR-22">
          <mxGeometry relative="1" as="geometry" />
        </mxCell>
        <mxCell id="BE_7_yksDcNoPbh0e0uR-15" value="j &amp;lt; 1 or&amp;nbsp;&lt;div&gt;arr[ j - i ] &amp;lt;= tmp&lt;/div&gt;" style="shape=trapezoid;perimeter=trapezoidPerimeter;whiteSpace=wrap;html=1;fixedSize=1;fillColor=#f5f5f5;strokeColor=#666666;fontColor=#333333;flipV=1;" vertex="1" parent="1">
          <mxGeometry x="360" y="760" width="120" height="40" as="geometry" />
        </mxCell>
        <mxCell id="BE_7_yksDcNoPbh0e0uR-18" value="" style="edgeStyle=orthogonalEdgeStyle;rounded=0;orthogonalLoop=1;jettySize=auto;html=1;" edge="1" parent="1" source="BE_7_yksDcNoPbh0e0uR-17" target="BE_7_yksDcNoPbh0e0uR-5">
          <mxGeometry relative="1" as="geometry" />
        </mxCell>
        <mxCell id="BE_7_yksDcNoPbh0e0uR-17" value="" style="shape=trapezoid;perimeter=trapezoidPerimeter;whiteSpace=wrap;html=1;fixedSize=1;fillColor=#f5f5f5;fontColor=#333333;strokeColor=#666666;" vertex="1" parent="1">
          <mxGeometry x="360" y="280" width="120" height="40" as="geometry" />
        </mxCell>
        <mxCell id="BE_7_yksDcNoPbh0e0uR-26" value="" style="edgeStyle=orthogonalEdgeStyle;rounded=0;orthogonalLoop=1;jettySize=auto;html=1;" edge="1" parent="1" source="BE_7_yksDcNoPbh0e0uR-20" target="BE_7_yksDcNoPbh0e0uR-25">
          <mxGeometry relative="1" as="geometry" />
        </mxCell>
        <mxCell id="BE_7_yksDcNoPbh0e0uR-20" value="" style="shape=trapezoid;perimeter=trapezoidPerimeter;whiteSpace=wrap;html=1;fixedSize=1;fillColor=#f5f5f5;strokeColor=#666666;fontColor=#333333;flipV=1;" vertex="1" parent="1">
          <mxGeometry x="360" y="920" width="120" height="40" as="geometry" />
        </mxCell>
        <mxCell id="BE_7_yksDcNoPbh0e0uR-24" value="" style="edgeStyle=orthogonalEdgeStyle;rounded=0;orthogonalLoop=1;jettySize=auto;html=1;" edge="1" parent="1" source="BE_7_yksDcNoPbh0e0uR-22" target="BE_7_yksDcNoPbh0e0uR-20">
          <mxGeometry relative="1" as="geometry" />
        </mxCell>
        <mxCell id="BE_7_yksDcNoPbh0e0uR-22" value="arr[ j ] = tmp" style="whiteSpace=wrap;html=1;fillColor=#f5f5f5;strokeColor=#666666;fontColor=#333333;" vertex="1" parent="1">
          <mxGeometry x="360" y="840" width="120" height="40" as="geometry" />
        </mxCell>
        <mxCell id="BE_7_yksDcNoPbh0e0uR-25" value="&lt;h3&gt;End&lt;/h3&gt;" style="rounded=1;whiteSpace=wrap;html=1;arcSize=50;fillColor=#f5f5f5;fontColor=#333333;strokeColor=#666666;" vertex="1" parent="1">
          <mxGeometry x="360" y="1000" width="120" height="40" as="geometry" />
        </mxCell>
      </root>
    </mxGraphModel>
  </diagram>
</mxfile>
